<svg xmlns="http://www.w3.org/2000/svg" viewBox="390 875 270 270">
<path d="M0 0 C21.15 -0.07 42.3 -0.12 63.45 -0.16 C73.27 -0.17 83.09 -0.19 92.91 -0.23 C101.47 -0.26 110.02 -0.28 118.58 -0.28 C123.12 -0.29 127.65 -0.3 132.18 -0.32 C136.45 -0.34 140.71 -0.34 144.98 -0.34 C146.54 -0.34 148.11 -0.35 149.67 -0.36 C151.81 -0.37 153.95 -0.37 156.09 -0.36 C157.29 -0.36 158.48 -0.37 159.72 -0.37 C166.1 0.35 169.65 3.24 173.56 8.12 C173.98 8.64 174.4 9.16 174.82 9.69 C180.17 16.36 185.32 23.19 190.48 30 C192.58 32.76 194.69 35.51 196.81 38.25 C207.04 51.54 217.21 64.86 227.13 78.39 C230.43 82.89 233.77 87.34 237.19 91.75 C240.88 96.51 244.49 101.33 248.06 106.19 C248.54 106.84 249.02 107.48 249.51 108.15 C252.72 112.54 254.52 115.17 254.39 120.75 C253.61 125.26 250.72 128.44 248 132 C247.09 133.22 246.19 134.45 245.28 135.67 C240.19 142.53 235.01 149.32 229.78 156.07 C226.55 160.27 223.36 164.51 220.19 168.75 C215.54 174.96 210.85 181.14 206.14 187.29 C202.45 192.11 198.77 196.93 195.1 201.76 C189.18 209.55 183.24 217.32 177.25 225.06 C176.39 226.18 176.39 226.18 175.52 227.32 C168.35 236.55 168.35 236.55 164 238 C162.66 238.09 161.32 238.13 159.98 238.13 C158.75 238.14 158.75 238.14 157.5 238.15 C156.61 238.15 155.72 238.15 154.8 238.15 C153.39 238.15 153.39 238.15 151.95 238.16 C148.83 238.16 145.71 238.17 142.59 238.17 C140.43 238.17 138.27 238.17 136.1 238.18 C131.57 238.18 127.03 238.19 122.5 238.19 C116.67 238.19 110.85 238.2 105.03 238.22 C100.56 238.23 96.1 238.23 91.63 238.23 C89.48 238.23 87.34 238.23 85.19 238.24 C82.19 238.25 79.19 238.25 76.2 238.24 C75.31 238.25 74.41 238.25 73.5 238.26 C72.68 238.26 71.86 238.25 71.02 238.25 C69.96 238.25 69.96 238.25 68.88 238.25 C67 238 67 238 64 236 C63.63 233.79 63.63 233.79 63.64 231.06 C63.64 230.09 63.64 229.11 63.64 228.1 C63.65 227.08 63.67 226.05 63.69 225 C63.68 223.98 63.68 222.95 63.68 221.9 C63.73 214.27 63.73 214.27 66 212 C68.68 211.87 71.25 211.86 73.93 211.94 C75.63 211.97 77.33 212 79.03 212.03 C79.94 212.05 80.84 212.07 81.77 212.09 C86.57 212.19 91.36 212.21 96.16 212.25 C102.26 212.3 108.36 212.37 114.46 212.52 C119.39 212.65 124.32 212.7 129.25 212.69 C131.12 212.7 133 212.75 134.87 212.82 C145 213.39 145 213.39 153.96 209.42 C157.54 205.6 160.31 201.36 162.92 196.84 C164.26 194.57 165.8 192.51 167.45 190.46 C167.92 189.85 168.38 189.24 168.86 188.62 C169.32 188.02 169.78 187.43 170.25 186.81 C171.33 185.4 172.42 183.98 173.5 182.57 C174.06 181.83 174.63 181.1 175.2 180.35 C178.54 175.99 181.86 171.62 185.19 167.25 C191.94 158.38 198.72 149.53 205.55 140.71 C207.24 138.53 208.91 136.34 210.59 134.15 C212.19 132.05 213.82 129.97 215.48 127.91 C216.23 126.95 216.98 125.99 217.75 125 C218.43 124.15 219.1 123.31 219.8 122.44 C221.28 120.07 221.28 120.07 220.48 117.56 C218.72 114.51 216.74 111.83 214.56 109.06 C214.12 108.5 213.67 107.93 213.22 107.34 C211.82 105.56 210.41 103.78 209 102 C207.29 99.83 205.58 97.67 203.88 95.5 C203.43 94.94 202.99 94.38 202.53 93.8 C196.19 85.73 190.01 77.54 183.81 69.37 C176.93 60.34 169.98 51.38 163 42.44 C162.44 41.72 161.87 41 161.3 40.26 C160.81 39.63 160.31 39 159.81 38.35 C158 36 158 36 156.98 34.05 C154.9 30.51 153.33 28.35 149.26 27.28 C145.73 27.03 142.27 27.04 138.73 27.13 C137.38 27.13 136.03 27.13 134.67 27.13 C131.77 27.14 128.87 27.17 125.96 27.21 C121.37 27.29 116.78 27.3 112.18 27.31 C102.43 27.32 92.69 27.41 82.94 27.5 C72.41 27.6 61.88 27.69 51.35 27.7 C46.79 27.7 42.22 27.75 37.66 27.82 C34.82 27.86 31.98 27.87 29.14 27.86 C27.2 27.87 25.25 27.92 23.31 27.97 C14.97 27.91 14.97 27.91 12.13 25.24 C10.84 23.2 9.89 21.25 9 19 C8.54 18.23 8.08 17.46 7.61 16.67 C6.46 14.68 5.32 12.69 4.19 10.69 C3.78 9.99 3.37 9.28 2.96 8.56 C0 3.35 0 3.35 0 0 Z " fill="#FFFFFF" transform="translate(396,881)"/>
<path d="M0 0 C2.48 2.48 3.02 4.54 4.14 7.87 C4.55 9.08 4.95 10.28 5.38 11.52 C5.59 12.16 5.8 12.8 6.02 13.46 C7.14 16.78 8.27 20.1 9.4 23.41 C9.63 24.07 9.85 24.73 10.08 25.41 C11.9 30.74 13.79 36.03 15.75 41.31 C16.03 42.06 16.3 42.81 16.59 43.57 C17.92 47.15 19.27 50.72 20.62 54.29 C20.89 54.99 21.15 55.69 21.42 56.41 C22.13 58.27 22.83 60.13 23.54 62 C24.7 65.1 25.74 68.23 26.77 71.38 C29.46 79.52 32.49 87.53 35.5 95.56 C36.07 97.1 36.65 98.64 37.22 100.18 C37.5 100.93 37.78 101.68 38.07 102.45 C39.14 105.32 40.21 108.2 41.28 111.07 C41.94 112.85 42.61 114.62 43.28 116.4 C43.65 117.37 44.01 118.34 44.38 119.34 C44.69 120.15 45 120.97 45.32 121.81 C46.34 125.08 46.43 127.6 46 131 C43.35 133.65 40.71 134.4 37.19 135.69 C35.96 136.15 34.74 136.6 33.48 137.07 C29.99 138 28.31 138.41 25 137 C22.4 133.62 21.12 129.89 19.75 125.88 C19.32 124.64 18.89 123.4 18.45 122.12 C18.21 121.46 17.98 120.79 17.74 120.11 C16.42 116.35 15.01 112.61 13.62 108.88 C10.79 101.23 8.06 93.55 5.4 85.85 C5.13 85.07 4.86 84.29 4.58 83.49 C4.23 82.48 4.23 82.48 3.87 81.44 C2.88 78.67 1.84 75.91 0.8 73.16 C-0.53 69.57 -1.82 65.96 -3.11 62.36 C-3.71 60.69 -4.3 59.03 -4.9 57.36 C-5.82 54.79 -6.74 52.22 -7.66 49.66 C-8.56 47.14 -9.46 44.62 -10.36 42.11 C-10.66 41.28 -10.95 40.45 -11.26 39.59 C-12.8 35.29 -14.37 30.99 -15.98 26.71 C-16.3 25.86 -16.62 25 -16.95 24.12 C-17.56 22.5 -18.17 20.88 -18.79 19.26 C-20.32 15.19 -21.59 11.36 -22 7 C-19.91 3.47 -15.82 2.58 -12.12 1.25 C-10.91 0.8 -9.7 0.35 -8.45 -0.11 C-5.02 -1 -3.3 -1.16 0 0 Z " fill="#FFFFFF" transform="translate(428,937)"/>
<path d="M0 0 C6.95 4.43 12.95 10 15.41 18.05 C17.07 26.32 15.95 33.85 11.84 41.17 C7.05 48.24 0.35 53.52 -8.16 55.17 C-15.83 55.95 -23.22 54.86 -29.66 50.47 C-35.66 45.46 -38.69 40.59 -41.16 33.17 C-41.77 24.86 -42.29 17.14 -37.16 10.17 C-36.75 9.56 -36.34 8.95 -35.91 8.32 C-27.82 -2.46 -12.26 -5.67 0 0 Z " fill="#FFFFFF" transform="translate(539.1640625,973.828125)"/>
<path d="M0 0 C0.99 0.33 1.98 0.66 3 1 C2.67 1.99 2.34 2.98 2 4 C1.34 2.68 0.68 1.36 0 0 Z " fill="#FFFFFF" transform="translate(396,882)"/>
</svg>