<svg xmlns="http://www.w3.org/2000/svg" viewBox="390 875 270 270">
  <path d="M 396.0 881.0 C 417.15 880.93 438.3 880.88 459.45 880.84 C 469.27 880.83 479.09 880.81 488.91 880.77 C 497.47 880.74 506.02 880.72 514.58 880.72 C 519.12 880.71 523.65 880.7 528.18 880.68 C 532.45 880.66 536.71 880.66 540.98 880.66 C 542.54 880.66 544.11 880.65 545.67 880.64 C 547.81 880.63 549.95 880.63 552.09 880.64 C 553.29 880.64 554.48 880.63 555.72 880.63 C 562.1 881.35 565.65 884.24 569.56 889.12 C 569.98 889.64 570.4 890.16 570.82 890.69 C 576.17 897.36 581.32 904.19 586.48 911.0 C 588.58 913.76 590.69 916.51 592.81 919.25 C 603.04 932.54 613.21 945.86 623.13 959.39 C 626.43 963.89 629.77 968.34 633.19 972.75 C 636.88 977.51 640.49 982.33 644.06 987.19 C 644.54 987.84 645.02 988.48 645.51 989.15 C 648.72 993.54 650.52 996.17 650.39 1001.75 C 649.61 1006.26 646.72 1009.44 644.0 1013.0 C 643.09 1014.22 642.19 1015.45 641.28 1016.67 C 636.19 1023.53 631.01 1030.32 625.78 1037.07 C 622.55 1041.27 619.36 1045.51 616.19 1049.75 C 611.54 1055.96 606.85 1062.14 602.14 1068.29 C 598.45 1073.11 594.77 1077.93 591.1 1082.76 C 585.18 1090.55 579.24 1098.32 573.25 1106.06 C 572.39 1107.18 572.39 1107.18 571.52 1108.32 C 564.35 1117.55 564.35 1117.55 560.0 1119.0 C 558.66 1119.09 557.32 1119.13 555.98 1119.13 C 554.75 1119.14 554.75 1119.14 553.5 1119.15 C 552.61 1119.15 551.72 1119.15 550.8 1119.15 C 549.39 1119.15 549.39 1119.15 547.95 1119.16 C 544.83 1119.16 541.71 1119.17 538.59 1119.17 C 536.43 1119.17 534.27 1119.17 532.1 1119.18 C 527.57 1119.18 523.03 1119.19 518.5 1119.19 C 512.67 1119.19 506.85 1119.2 501.03 1119.22 C 496.56 1119.23 492.1 1119.23 487.63 1119.23 C 485.48 1119.23 483.34 1119.23 481.19 1119.24 C 478.19 1119.25 475.19 1119.25 472.2 1119.24 C 471.31 1119.25 470.41 1119.25 469.5 1119.26 C 468.68 1119.26 467.86 1119.25 467.02 1119.25 C 465.96 1119.25 465.96 1119.25 464.88 1119.25 C 463.0 1119.0 463.0 1119.0 460.0 1117.0 C 459.63 1114.79 459.63 1114.79 459.64 1112.06 C 459.64 1111.09 459.64 1110.11 459.64 1109.1 C 459.65 1108.08 459.67 1107.05 459.69 1106.0 C 459.68 1104.98 459.68 1103.95 459.68 1102.9 C 459.73 1095.27 459.73 1095.27 462.0 1093.0 C 464.68 1092.87 467.25 1092.86 469.93 1092.94 C 471.63 1092.97 473.33 1093.0 475.03 1093.03 C 475.94 1093.05 476.84 1093.07 477.77 1093.09 C 482.57 1093.19 487.36 1093.21 492.16 1093.25 C 498.26 1093.3 504.36 1093.37 510.46 1093.52 C 515.39 1093.65 520.32 1093.7 525.25 1093.69 C 527.12 1093.7 529.0 1093.75 530.87 1093.82 C 541.0 1094.39 541.0 1094.39 549.96 1090.42 C 553.54 1086.6 556.31 1082.36 558.92 1077.84 C 560.26 1075.57 561.8 1073.51 563.45 1071.46 C 563.92 1070.85 564.38 1070.24 564.86 1069.62 C 565.32 1069.02 565.78 1068.43 566.25 1067.81 C 567.33 1066.4 568.42 1064.98 569.5 1063.57 C 570.06 1062.83 570.63 1062.1 571.2 1061.35 C 574.54 1056.99 577.86 1052.62 581.19 1048.25 C 587.94 1039.38 594.72 1030.53 601.55 1021.71 C 603.24 1019.53 604.91 1017.34 606.59 1015.15 C 608.19 1013.05 609.82 1010.97 611.48 1008.91 C 612.23 1007.95 612.98 1006.99 613.75 1006.0 C 614.43 1005.15 615.1 1004.31 615.8 1003.44 C 617.28 1001.07 617.28 1001.07 616.48 998.56 C 614.72 995.51 612.74 992.83 610.56 990.06 C 610.12 989.5 609.67 988.93 609.22 988.34 C 607.82 986.56 606.41 984.78 605.0 983.0 C 603.29 980.83 601.58 978.67 599.88 976.5 C 599.43 975.94 598.99 975.38 598.53 974.8 C 592.19 966.73 586.01 958.54 579.81 950.37 C 572.93 941.34 565.98 932.38 559.0 923.44 C 558.44 922.72 557.87 922.0 557.3 921.26 C 556.81 920.63 556.31 920.0 555.81 919.35 C 554.0 917.0 554.0 917.0 552.98 915.05 C 550.9 911.51 549.33 909.35 545.26 908.28 C 541.73 908.03 538.27 908.04 534.73 908.13 C 533.38 908.13 532.03 908.13 530.67 908.13 C 527.77 908.14 524.87 908.17 521.96 908.21 C 517.37 908.29 512.78 908.3 508.18 908.31 C 498.43 908.32 488.69 908.41 478.94 908.5 C 468.41 908.6 457.88 908.69 447.35 908.7 C 442.79 908.7 438.22 908.75 433.66 908.82 C 430.82 908.86 427.98 908.87 425.14 908.86 C 423.2 908.87 421.25 908.92 419.31 908.97 C 410.97 908.91 410.97 908.91 408.13 906.24 C 406.84 904.2 405.89 902.25 405.0 900.0 C 404.54 899.23 404.08 898.46 403.61 897.67 C 402.46 895.68 401.32 893.69 400.19 891.69 C 399.78 890.99 399.37 890.28 398.96 889.56 C 396.0 884.35 396.0 884.35 396.0 881.0 Z M 428.0 937.0 C 430.48 939.48 431.02 941.54 432.14 944.87 C 432.55 946.08 432.95 947.28 433.38 948.52 C 433.59 949.16 433.8 949.8 434.02 950.46 C 435.14 953.78 436.27 957.1 437.4 960.41 C 437.63 961.07 437.85 961.73 438.08 962.41 C 439.9 967.74 441.79 973.03 443.75 978.31 C 444.03 979.06 444.3 979.81 444.59 980.57 C 445.92 984.15 447.27 987.72 448.62 991.29 C 448.89 991.99 449.15 992.69 449.42 993.41 C 450.13 995.27 450.83 997.13 451.54 999.0 C 452.7 1002.1 453.74 1005.23 454.77 1008.38 C 457.46 1016.52 460.49 1024.53 463.5 1032.56 C 464.07 1034.1 464.65 1035.64 465.22 1037.18 C 465.5 1037.93 465.78 1038.68 466.07 1039.45 C 467.14 1042.32 468.21 1045.2 469.28 1048.07 C 469.94 1049.85 470.61 1051.62 471.28 1053.4 C 471.65 1054.37 472.01 1055.34 472.38 1056.34 C 472.69 1057.15 473.0 1057.97 473.32 1058.81 C 474.34 1062.08 474.43 1064.6 474.0 1068.0 C 471.35 1070.65 468.71 1071.4 465.19 1072.69 C 463.96 1073.15 462.74 1073.6 461.48 1074.07 C 457.99 1075.0 456.31 1075.41 453.0 1074.0 C 450.4 1070.62 449.12 1066.89 447.75 1062.88 C 447.32 1061.64 446.89 1060.4 446.45 1059.12 C 446.21 1058.46 445.98 1057.79 445.74 1057.11 C 444.42 1053.35 443.01 1049.61 441.62 1045.88 C 438.79 1038.23 436.06 1030.55 433.4 1022.85 C 433.13 1022.07 432.86 1021.29 432.58 1020.49 C 432.23 1019.48 432.23 1019.48 431.87 1018.44 C 430.88 1015.67 429.84 1012.91 428.8 1010.16 C 427.47 1006.57 426.18 1002.96 424.89 999.36 C 424.29 997.69 423.7 996.03 423.1 994.36 C 422.18 991.79 421.26 989.22 420.34 986.66 C 419.44 984.14 418.54 981.62 417.64 979.11 C 417.34 978.28 417.05 977.45 416.74 976.59 C 415.2 972.29 413.63 967.99 412.02 963.71 C 411.7 962.86 411.38 962.0 411.05 961.12 C 410.44 959.5 409.83 957.88 409.21 956.26 C 407.68 952.19 406.41 948.36 406.0 944.0 C 408.09 940.47 412.18 939.58 415.88 938.25 C 417.09 937.8 418.3 937.35 419.55 936.89 C 422.98 936.0 424.7 935.84 428.0 937.0 Z M 539.16 973.83 C 546.11 978.26 552.11 983.83 554.57 991.88 C 556.23 1000.15 555.11 1007.68 551.0 1015.0 C 546.21 1022.07 539.51 1027.35 531.0 1029.0 C 523.33 1029.78 515.94 1028.69 509.5 1024.3 C 503.5 1019.29 500.47 1014.42 498.0 1007.0 C 497.39 998.69 496.87 990.97 502.0 984.0 C 502.41 983.39 502.82 982.78 503.25 982.15 C 511.34 971.37 526.9 968.16 539.16 973.83 Z M 396.0 882.0 C 396.99 882.33 397.98 882.66 399.0 883.0 C 398.67 883.99 398.34 884.98 398.0 886.0 C 397.34 884.68 396.68 883.36 396.0 882.0 Z" fill="#FFFFFF" fill-rule="nonzero"/>
</svg>