<svg xmlns="http://www.w3.org/2000/svg" viewBox="390 875 1290 270">
  <path d="M 396.0 881.0 C 417.15 880.93 438.3 880.88 459.45 880.84 C 469.27 880.83 479.09 880.81 488.91 880.77 C 497.47 880.74 506.02 880.72 514.58 880.72 C 519.12 880.71 523.65 880.7 528.18 880.68 C 532.45 880.66 536.71 880.66 540.98 880.66 C 542.54 880.66 544.11 880.65 545.67 880.64 C 547.81 880.63 549.95 880.63 552.09 880.64 C 553.29 880.64 554.48 880.63 555.72 880.63 C 562.1 881.35 565.65 884.24 569.56 889.12 C 569.98 889.64 570.4 890.16 570.82 890.69 C 576.17 897.36 581.32 904.19 586.48 911.0 C 588.58 913.76 590.69 916.51 592.81 919.25 C 603.04 932.54 613.21 945.86 623.13 959.39 C 626.43 963.89 629.77 968.34 633.19 972.75 C 636.88 977.51 640.49 982.33 644.06 987.19 C 644.54 987.84 645.02 988.48 645.51 989.15 C 648.72 993.54 650.52 996.17 650.39 1001.75 C 649.61 1006.26 646.72 1009.44 644.0 1013.0 C 643.09 1014.22 642.19 1015.45 641.28 1016.67 C 636.19 1023.53 631.01 1030.32 625.78 1037.07 C 622.55 1041.27 619.36 1045.51 616.19 1049.75 C 611.54 1055.96 606.85 1062.14 602.14 1068.29 C 598.45 1073.11 594.77 1077.93 591.1 1082.76 C 585.18 1090.55 579.24 1098.32 573.25 1106.06 C 572.39 1107.18 572.39 1107.18 571.52 1108.32 C 564.35 1117.55 564.35 1117.55 560.0 1119.0 C 558.66 1119.09 557.32 1119.13 555.98 1119.13 C 554.75 1119.14 554.75 1119.14 553.5 1119.15 C 552.61 1119.15 551.72 1119.15 550.8 1119.15 C 549.39 1119.15 549.39 1119.15 547.95 1119.16 C 544.83 1119.16 541.71 1119.17 538.59 1119.17 C 536.43 1119.17 534.27 1119.17 532.1 1119.18 C 527.57 1119.18 523.03 1119.19 518.5 1119.19 C 512.67 1119.19 506.85 1119.2 501.03 1119.22 C 496.56 1119.23 492.1 1119.23 487.63 1119.23 C 485.48 1119.23 483.34 1119.23 481.19 1119.24 C 478.19 1119.25 475.19 1119.25 472.2 1119.24 C 471.31 1119.25 470.41 1119.25 469.5 1119.26 C 468.68 1119.26 467.86 1119.25 467.02 1119.25 C 465.96 1119.25 465.96 1119.25 464.88 1119.25 C 463.0 1119.0 463.0 1119.0 460.0 1117.0 C 459.63 1114.79 459.63 1114.79 459.64 1112.06 C 459.64 1111.09 459.64 1110.11 459.64 1109.1 C 459.65 1108.08 459.67 1107.05 459.69 1106.0 C 459.68 1104.98 459.68 1103.95 459.68 1102.9 C 459.73 1095.27 459.73 1095.27 462.0 1093.0 C 464.68 1092.87 467.25 1092.86 469.93 1092.94 C 471.63 1092.97 473.33 1093.0 475.03 1093.03 C 475.94 1093.05 476.84 1093.07 477.77 1093.09 C 482.57 1093.19 487.36 1093.21 492.16 1093.25 C 498.26 1093.3 504.36 1093.37 510.46 1093.52 C 515.39 1093.65 520.32 1093.7 525.25 1093.69 C 527.12 1093.7 529.0 1093.75 530.87 1093.82 C 541.0 1094.39 541.0 1094.39 549.96 1090.42 C 553.54 1086.6 556.31 1082.36 558.92 1077.84 C 560.26 1075.57 561.8 1073.51 563.45 1071.46 C 563.92 1070.85 564.38 1070.24 564.86 1069.62 C 565.32 1069.02 565.78 1068.43 566.25 1067.81 C 567.33 1066.4 568.42 1064.98 569.5 1063.57 C 570.06 1062.83 570.63 1062.1 571.2 1061.35 C 574.54 1056.99 577.86 1052.62 581.19 1048.25 C 587.94 1039.38 594.72 1030.53 601.55 1021.71 C 603.24 1019.53 604.91 1017.34 606.59 1015.15 C 608.19 1013.05 609.82 1010.97 611.48 1008.91 C 612.23 1007.95 612.98 1006.99 613.75 1006.0 C 614.43 1005.15 615.1 1004.31 615.8 1003.44 C 617.28 1001.07 617.28 1001.07 616.48 998.56 C 614.72 995.51 612.74 992.83 610.56 990.06 C 610.12 989.5 609.67 988.93 609.22 988.34 C 607.82 986.56 606.41 984.78 605.0 983.0 C 603.29 980.83 601.58 978.67 599.88 976.5 C 599.43 975.94 598.99 975.38 598.53 974.8 C 592.19 966.73 586.01 958.54 579.81 950.37 C 572.93 941.34 565.98 932.38 559.0 923.44 C 558.44 922.72 557.87 922.0 557.3 921.26 C 556.81 920.63 556.31 920.0 555.81 919.35 C 554.0 917.0 554.0 917.0 552.98 915.05 C 550.9 911.51 549.33 909.35 545.26 908.28 C 541.73 908.03 538.27 908.04 534.73 908.13 C 533.38 908.13 532.03 908.13 530.67 908.13 C 527.77 908.14 524.87 908.17 521.96 908.21 C 517.37 908.29 512.78 908.3 508.18 908.31 C 498.43 908.32 488.69 908.41 478.94 908.5 C 468.41 908.6 457.88 908.69 447.35 908.7 C 442.79 908.7 438.22 908.75 433.66 908.82 C 430.82 908.86 427.98 908.87 425.14 908.86 C 423.2 908.87 421.25 908.92 419.31 908.97 C 410.97 908.91 410.97 908.91 408.13 906.24 C 406.84 904.2 405.89 902.25 405.0 900.0 C 404.54 899.23 404.08 898.46 403.61 897.67 C 402.46 895.68 401.32 893.69 400.19 891.69 C 399.78 890.99 399.37 890.28 398.96 889.56 C 396.0 884.35 396.0 884.35 396.0 881.0 Z M 428.0 937.0 C 430.48 939.48 431.02 941.54 432.14 944.87 C 432.55 946.08 432.95 947.28 433.38 948.52 C 433.59 949.16 433.8 949.8 434.02 950.46 C 435.14 953.78 436.27 957.1 437.4 960.41 C 437.63 961.07 437.85 961.73 438.08 962.41 C 439.9 967.74 441.79 973.03 443.75 978.31 C 444.03 979.06 444.3 979.81 444.59 980.57 C 445.92 984.15 447.27 987.72 448.62 991.29 C 448.89 991.99 449.15 992.69 449.42 993.41 C 450.13 995.27 450.83 997.13 451.54 999.0 C 452.7 1002.1 453.74 1005.23 454.77 1008.38 C 457.46 1016.52 460.49 1024.53 463.5 1032.56 C 464.07 1034.1 464.65 1035.64 465.22 1037.18 C 465.5 1037.93 465.78 1038.68 466.07 1039.45 C 467.14 1042.32 468.21 1045.2 469.28 1048.07 C 469.94 1049.85 470.61 1051.62 471.28 1053.4 C 471.65 1054.37 472.01 1055.34 472.38 1056.34 C 472.69 1057.15 473.0 1057.97 473.32 1058.81 C 474.34 1062.08 474.43 1064.6 474.0 1068.0 C 471.35 1070.65 468.71 1071.4 465.19 1072.69 C 463.96 1073.15 462.74 1073.6 461.48 1074.07 C 457.99 1075.0 456.31 1075.41 453.0 1074.0 C 450.4 1070.62 449.12 1066.89 447.75 1062.88 C 447.32 1061.64 446.89 1060.4 446.45 1059.12 C 446.21 1058.46 445.98 1057.79 445.74 1057.11 C 444.42 1053.35 443.01 1049.61 441.62 1045.88 C 438.79 1038.23 436.06 1030.55 433.4 1022.85 C 433.13 1022.07 432.86 1021.29 432.58 1020.49 C 432.23 1019.48 432.23 1019.48 431.87 1018.44 C 430.88 1015.67 429.84 1012.91 428.8 1010.16 C 427.47 1006.57 426.18 1002.96 424.89 999.36 C 424.29 997.69 423.7 996.03 423.1 994.36 C 422.18 991.79 421.26 989.22 420.34 986.66 C 419.44 984.14 418.54 981.62 417.64 979.11 C 417.34 978.28 417.05 977.45 416.74 976.59 C 415.2 972.29 413.63 967.99 412.02 963.71 C 411.7 962.86 411.38 962.0 411.05 961.12 C 410.44 959.5 409.83 957.88 409.21 956.26 C 407.68 952.19 406.41 948.36 406.0 944.0 C 408.09 940.47 412.18 939.58 415.88 938.25 C 417.09 937.8 418.3 937.35 419.55 936.89 C 422.98 936.0 424.7 935.84 428.0 937.0 Z M 539.16 973.83 C 546.11 978.26 552.11 983.83 554.57 991.88 C 556.23 1000.15 555.11 1007.68 551.0 1015.0 C 546.21 1022.07 539.51 1027.35 531.0 1029.0 C 523.33 1029.78 515.94 1028.69 509.5 1024.3 C 503.5 1019.29 500.47 1014.42 498.0 1007.0 C 497.39 998.69 496.87 990.97 502.0 984.0 C 502.41 983.39 502.82 982.78 503.25 982.15 C 511.34 971.37 526.9 968.16 539.16 973.83 Z M 396.0 882.0 C 396.99 882.33 397.98 882.66 399.0 883.0 C 398.67 883.99 398.34 884.98 398.0 886.0 C 397.34 884.68 396.68 883.36 396.0 882.0 Z" fill="#FFFFFF" fill-rule="nonzero"/>

  <path d="M 1497.0 962.38 C 1500.75 965.51 1503.39 968.88 1506.0 973.0 C 1506.33 967.73 1506.66 962.45 1507.0 957.0 C 1511.62 957.0 1516.24 957.0 1521.0 957.0 C 1521.05 967.95 1521.08 978.88 1521.1 989.84 C 1521.11 994.91 1521.13 1000.0 1521.15 1005.09 C 1521.17 1009.99 1521.18 1014.89 1521.19 1019.8 C 1521.19 1021.67 1521.2 1023.54 1521.21 1025.41 C 1521.23 1028.04 1521.23 1030.66 1521.23 1033.29 C 1521.23 1034.06 1521.24 1034.83 1521.25 1035.62 C 1521.21 1046.93 1517.09 1057.98 1509.38 1066.38 C 1499.42 1075.52 1487.19 1078.4 1474.06 1078.32 C 1473.18 1078.31 1472.3 1078.31 1471.4 1078.3 C 1460.19 1078.09 1450.69 1074.98 1442.18 1067.38 C 1436.25 1060.94 1433.63 1053.62 1433.0 1044.99 C 1437.62 1044.99 1442.24 1044.99 1447.0 1044.99 C 1447.56 1046.37 1448.11 1047.72 1448.69 1049.12 C 1451.69 1055.83 1454.96 1060.15 1462.0 1062.99 C 1470.47 1065.46 1482.96 1065.55 1491.11 1062.1 C 1498.28 1057.92 1502.52 1052.93 1505.0 1044.99 C 1506.11 1040.73 1506.12 1036.57 1506.06 1032.18 C 1506.06 1031.49 1506.05 1030.81 1506.05 1030.09 C 1506.04 1028.39 1506.02 1026.69 1506.0 1024.99 C 1505.66 1025.51 1505.32 1026.02 1504.97 1026.54 C 1499.77 1033.92 1492.85 1040.23 1483.86 1042.56 C 1470.17 1044.7 1458.24 1043.21 1446.69 1035.18 C 1438.19 1028.24 1433.46 1020.38 1430.0 1010.0 C 1428.95 998.22 1428.63 986.34 1435.0 976.0 C 1435.45 975.27 1435.89 974.54 1436.35 973.78 C 1442.86 964.29 1452.29 956.75 1463.69 954.33 C 1476.13 952.59 1486.79 954.88 1497.0 962.38 Z M 1120.81 961.12 C 1130.91 968.0 1137.2 978.25 1140.0 990.0 C 1141.49 1004.35 1140.46 1017.89 1131.75 1029.88 C 1130.53 1031.28 1129.28 1032.65 1128.0 1034.01 C 1127.34 1034.7 1126.68 1035.41 1126.01 1036.14 C 1117.95 1044.09 1108.56 1047.44 1097.37 1047.57 C 1086.23 1047.36 1076.98 1044.01 1069.0 1036.01 C 1067.35 1033.69 1065.7 1031.38 1064.0 1029.01 C 1063.67 1044.18 1063.34 1059.36 1063.0 1075.01 C 1058.38 1075.01 1053.76 1075.01 1049.0 1075.01 C 1049.0 1036.06 1049.0 997.12 1049.0 957.0 C 1053.62 957.0 1058.24 957.0 1063.0 957.0 C 1063.33 962.27 1063.66 967.55 1064.0 973.0 C 1064.82 971.8 1065.65 970.61 1066.5 969.38 C 1080.05 951.32 1102.26 950.27 1120.81 961.12 Z M 1153.0 927.0 C 1167.0 927.0 1167.0 927.0 1170.43 929.76 C 1171.29 931.04 1172.1 932.35 1172.88 933.69 C 1173.85 935.17 1174.83 936.64 1175.81 938.12 C 1176.32 938.91 1176.83 939.7 1177.35 940.52 C 1180.3 944.95 1183.61 949.11 1186.88 953.31 C 1192.28 960.38 1197.64 967.48 1202.94 974.62 C 1203.83 975.82 1203.83 975.82 1204.75 977.05 C 1205.29 977.79 1205.84 978.53 1206.4 979.29 C 1206.88 979.94 1207.36 980.58 1207.86 981.25 C 1209.0 983.0 1209.0 983.0 1210.0 986.0 C 1214.27 981.95 1217.85 977.54 1221.44 972.88 C 1222.05 972.09 1222.65 971.3 1223.28 970.49 C 1227.02 965.64 1230.69 960.74 1234.32 955.81 C 1235.48 954.23 1236.65 952.65 1237.82 951.08 C 1240.75 947.12 1243.59 943.13 1246.31 939.02 C 1247.13 937.84 1247.13 937.84 1247.97 936.62 C 1249.0 935.13 1249.99 933.62 1250.95 932.08 C 1252.38 930.05 1252.38 930.05 1256.0 927.0 C 1260.29 927.0 1264.58 927.0 1269.0 927.0 C 1269.0 965.94 1269.0 1004.88 1269.0 1045.0 C 1264.05 1045.0 1259.1 1045.0 1254.0 1045.0 C 1253.67 1014.97 1253.34 984.94 1253.0 954.0 C 1246.07 963.4 1246.07 963.4 1239.0 973.0 C 1235.57 977.54 1232.13 982.07 1228.66 986.57 C 1225.77 990.33 1222.9 994.09 1220.2 997.99 C 1219.8 998.56 1219.39 999.14 1218.98 999.73 C 1217.97 1001.18 1216.98 1002.65 1215.99 1004.11 C 1214.0 1006.0 1214.0 1006.0 1211.03 1006.65 C 1208.0 1006.0 1208.0 1006.0 1205.79 1003.68 C 1205.07 1002.57 1204.36 1001.46 1203.62 1000.31 C 1202.76 999.02 1201.9 997.73 1201.03 996.45 C 1200.56 995.74 1200.08 995.03 1199.59 994.29 C 1196.01 989.13 1192.09 984.22 1188.24 979.25 C 1181.88 971.0 1176.03 962.54 1170.0 954.0 C 1169.67 984.03 1169.34 1014.06 1169.0 1045.0 C 1163.72 1045.0 1158.44 1045.0 1153.0 1045.0 C 1153.0 1006.06 1153.0 967.12 1153.0 927.0 Z M 926.0 959.0 C 936.91 965.21 944.69 975.91 948.31 987.81 C 949.24 993.47 949.0 999.27 949.0 1005.0 C 924.91 1005.0 900.82 1005.0 876.0 1005.0 C 879.2 1017.79 881.39 1023.18 891.95 1029.87 C 898.78 1033.63 909.46 1033.25 916.91 1031.2 C 921.45 1028.93 923.26 1026.69 925.5 1022.19 C 926.85 1019.83 926.85 1019.83 929.0 1018.0 C 934.56 1016.83 940.39 1017.49 946.0 1018.0 C 942.71 1028.68 935.97 1036.82 926.38 1042.57 C 915.83 1048.05 902.92 1048.98 891.37 1046.09 C 879.6 1041.4 869.67 1033.08 864.12 1021.56 C 858.84 1008.74 858.26 995.11 863.0 982.0 C 864.72 978.44 866.72 975.22 869.0 972.0 C 869.44 971.36 869.88 970.73 870.34 970.07 C 876.43 962.14 885.52 957.57 895.0 955.0 C 905.47 951.51 916.37 954.45 926.0 959.0 Z M 1352.94 962.31 C 1354.32 963.5 1355.68 964.73 1357.0 966.0 C 1357.64 966.6 1358.27 967.21 1358.93 967.84 C 1369.46 978.86 1370.0 989.97 1370.0 1005.0 C 1345.91 1005.0 1321.82 1005.0 1297.0 1005.0 C 1302.31 1020.8 1302.31 1020.8 1314.5 1030.56 C 1322.2 1033.11 1331.37 1033.61 1339.08 1030.93 C 1343.61 1028.45 1346.03 1026.35 1348.13 1021.62 C 1349.18 1019.57 1349.18 1019.57 1351.0 1018.0 C 1356.41 1017.28 1361.58 1017.54 1367.0 1018.0 C 1365.46 1026.86 1359.84 1034.44 1352.64 1039.73 C 1344.41 1044.9 1336.49 1047.58 1326.75 1047.5 C 1325.93 1047.49 1325.1 1047.48 1324.25 1047.48 C 1312.23 1047.12 1302.47 1042.51 1294.0 1034.0 C 1284.14 1022.41 1281.09 1009.98 1282.0 995.0 C 1283.83 982.42 1288.63 972.66 1298.0 964.0 C 1314.71 951.98 1335.67 949.52 1352.94 962.31 Z M 1021.0 962.0 C 1030.47 968.62 1036.31 978.03 1038.69 989.25 C 1039.12 994.48 1039.0 999.75 1039.0 1005.0 C 1014.91 1005.0 990.82 1005.0 966.0 1005.0 C 970.22 1018.7 972.1 1024.36 984.0 1031.0 C 990.9 1033.3 1001.94 1033.52 1008.69 1030.44 C 1013.57 1027.36 1016.85 1022.73 1020.0 1018.0 C 1022.79 1017.78 1025.35 1017.72 1028.12 1017.81 C 1029.26 1017.83 1029.26 1017.83 1030.41 1017.85 C 1032.27 1017.89 1034.14 1017.94 1036.0 1018.0 C 1033.4 1028.49 1027.7 1035.67 1018.63 1041.49 C 1007.24 1048.02 994.18 1049.16 981.39 1046.15 C 968.79 1041.34 959.82 1032.3 954.19 1020.25 C 949.23 1009.01 948.88 994.32 953.06 982.75 C 959.53 968.69 970.19 960.28 984.31 954.69 C 998.14 952.11 1009.07 955.02 1021.0 962.0 Z M 1604.46 962.95 C 1613.63 970.33 1618.98 980.51 1621.0 992.0 C 1621.0 996.29 1621.0 1000.58 1621.0 1005.0 C 1596.91 1005.0 1572.82 1005.0 1548.0 1005.0 C 1552.68 1020.54 1552.68 1020.54 1564.17 1030.09 C 1570.99 1033.47 1581.37 1033.16 1588.73 1031.31 C 1594.76 1028.51 1598.07 1023.87 1601.0 1018.0 C 1606.61 1018.0 1612.22 1018.0 1618.0 1018.0 C 1615.45 1028.2 1608.91 1036.38 1599.96 1041.86 C 1588.89 1047.62 1575.7 1049.15 1563.48 1046.13 C 1550.87 1041.18 1541.94 1032.57 1536.08 1020.52 C 1531.27 1009.24 1530.52 993.59 1535.13 982.06 C 1537.58 977.31 1540.48 973.02 1544.0 969.0 C 1544.5 968.39 1545.0 967.79 1545.52 967.16 C 1561.16 949.74 1586.21 950.63 1604.46 962.95 Z M 751.0 1045.0 L 751.0 927.0 L 795.0 927.0 C 825.0 927.0 843.0 953.0 843.0 986.0 C 843.0 1019.0 825.0 1045.0 795.0 1045.0 Z M 765.0 1031.0 L 795.0 1031.0 C 815.0 1031.0 829.0 1010.0 829.0 986.0 C 829.0 962.0 815.0 941.0 795.0 941.0 L 765.0 941.0 Z M 1630.0 957.0 C 1634.95 957.0 1639.9 957.0 1645.0 957.0 C 1645.33 961.95 1645.66 966.9 1646.0 972.0 C 1646.8 970.8 1647.61 969.61 1648.44 968.38 C 1652.45 963.0 1657.62 959.13 1664.0 957.0 C 1666.74 956.93 1669.45 956.91 1672.19 956.94 C 1672.94 956.94 1673.69 956.95 1674.46 956.95 C 1676.31 956.96 1678.15 956.98 1680.0 957.0 C 1680.0 961.29 1680.0 965.58 1680.0 970.0 C 1679.02 970.01 1678.04 970.03 1677.04 970.04 C 1667.99 970.37 1660.85 971.08 1654.23 977.79 C 1650.43 982.43 1648.57 987.27 1647.0 993.0 C 1646.67 993.99 1646.34 994.98 1646.0 996.0 C 1645.89 997.61 1645.82 999.22 1645.79 1000.84 C 1645.77 1001.82 1645.75 1002.8 1645.73 1003.81 C 1645.71 1005.4 1645.71 1005.4 1645.68 1007.01 C 1645.66 1008.1 1645.64 1009.18 1645.62 1010.29 C 1645.56 1013.76 1645.5 1017.22 1645.44 1020.69 C 1645.39 1023.03 1645.35 1025.38 1645.31 1027.73 C 1645.2 1033.49 1645.1 1039.24 1645.0 1045.0 C 1640.05 1045.0 1635.1 1045.0 1630.0 1045.0 C 1630.0 1015.96 1630.0 986.92 1630.0 957.0 Z M 1380.0 957.0 C 1384.62 957.0 1389.24 957.0 1394.0 957.0 C 1394.33 962.61 1394.66 968.22 1395.0 974.0 C 1395.68 972.8 1396.36 971.61 1397.06 970.38 C 1401.18 963.82 1406.48 959.25 1414.0 957.0 C 1416.83 956.67 1419.59 956.71 1422.44 956.81 C 1423.17 956.83 1423.9 956.84 1424.65 956.85 C 1426.44 956.89 1428.22 956.94 1430.0 957.0 C 1430.0 961.29 1430.0 965.58 1430.0 970.0 C 1429.01 970.03 1428.02 970.05 1427.0 970.08 C 1417.26 970.44 1410.31 971.36 1403.25 978.5 C 1396.63 986.84 1395.4 996.78 1395.39 1007.11 C 1395.37 1008.2 1395.36 1009.3 1395.34 1010.42 C 1395.29 1013.86 1395.27 1017.31 1395.25 1020.75 C 1395.22 1023.1 1395.19 1025.46 1395.16 1027.81 C 1395.09 1033.54 1395.04 1039.27 1395.0 1045.0 C 1390.05 1045.0 1385.1 1045.0 1380.0 1045.0 C 1380.0 1015.96 1380.0 986.92 1380.0 957.0 Z M 1109.31 971.52 C 1113.92 974.06 1117.28 976.93 1120.19 981.32 C 1120.92 982.39 1120.92 982.39 1121.67 983.49 C 1126.18 991.99 1126.38 1002.7 1124.35 1011.98 C 1121.38 1020.22 1115.65 1026.77 1108.0 1031.0 C 1100.46 1034.0 1090.56 1034.45 1082.69 1032.07 C 1075.44 1028.71 1068.76 1022.34 1065.67 1014.96 C 1065.45 1014.32 1065.23 1013.67 1065.0 1013.0 C 1064.78 1012.37 1064.56 1011.73 1064.33 1011.08 C 1061.55 1001.7 1062.42 992.65 1067.0 984.0 C 1077.73 968.95 1092.21 963.98 1109.31 971.52 Z M 1492.96 973.06 C 1499.34 977.08 1503.71 983.88 1506.0 991.0 C 1507.05 1001.76 1506.07 1011.1 1499.25 1019.81 C 1493.72 1025.72 1486.75 1029.52 1478.66 1030.33 C 1467.72 1030.46 1460.83 1028.41 1452.78 1020.92 C 1446.22 1013.86 1443.55 1006.39 1443.74 996.81 C 1444.52 988.13 1448.34 981.34 1454.62 975.37 C 1466.52 965.47 1479.81 965.95 1492.96 973.06 Z M 922.0 973.0 C 927.18 976.5 930.45 980.29 933.0 986.0 C 933.0 987.98 933.0 989.96 933.0 992.0 C 914.19 992.0 895.38 992.0 876.0 992.0 C 877.33 984.03 880.51 978.67 886.88 973.62 C 898.27 965.89 910.16 965.9 922.0 973.0 Z M 1346.31 974.69 C 1350.43 977.99 1353.2 982.04 1355.0 987.0 C 1355.0 988.65 1355.0 990.3 1355.0 992.0 C 1336.19 992.0 1317.38 992.0 1298.0 992.0 C 1299.44 983.35 1303.06 978.02 1309.84 972.48 C 1321.5 964.5 1335.2 967.22 1346.31 974.69 Z M 1011.0 972.0 C 1016.89 976.19 1021.87 980.92 1024.0 988.0 C 1024.0 989.32 1024.0 990.64 1024.0 992.0 C 1004.86 992.0 985.72 992.0 966.0 992.0 C 969.64 981.08 972.98 975.46 982.88 969.96 C 992.02 965.9 1002.49 967.04 1011.0 972.0 Z M 1593.0 972.0 C 1599.5 976.31 1603.34 981.68 1606.0 989.0 C 1606.0 989.99 1606.0 990.98 1606.0 992.0 C 1586.86 992.0 1567.72 992.0 1548.0 992.0 C 1551.58 981.26 1554.85 975.1 1565.0 970.0 C 1573.96 965.73 1584.59 967.22 1593.0 972.0 Z" fill="#FFFFFF" fill-rule="evenodd"/>
</svg>

