<svg xmlns="http://www.w3.org/2000/svg" viewBox="730 875 950 270">
  <path d="M 1497.0 962.38 C 1500.75 965.51 1503.39 968.88 1506.0 973.0 C 1506.33 967.73 1506.66 962.45 1507.0 957.0 C 1511.62 957.0 1516.24 957.0 1521.0 957.0 C 1521.05 967.95 1521.08 978.88 1521.1 989.84 C 1521.11 994.91 1521.13 1000.0 1521.15 1005.09 C 1521.17 1009.99 1521.18 1014.89 1521.19 1019.8 C 1521.19 1021.67 1521.2 1023.54 1521.21 1025.41 C 1521.23 1028.04 1521.23 1030.66 1521.23 1033.29 C 1521.23 1034.06 1521.24 1034.83 1521.25 1035.62 C 1521.21 1046.93 1517.09 1057.98 1509.38 1066.38 C 1499.42 1075.52 1487.19 1078.4 1474.06 1078.32 C 1473.18 1078.31 1472.3 1078.31 1471.4 1078.3 C 1460.19 1078.09 1450.69 1074.98 1442.18 1067.38 C 1436.25 1060.94 1433.63 1053.62 1433.0 1044.99 C 1437.62 1044.99 1442.24 1044.99 1447.0 1044.99 C 1447.56 1046.37 1448.11 1047.72 1448.69 1049.12 C 1451.69 1055.83 1454.96 1060.15 1462.0 1062.99 C 1470.47 1065.46 1482.96 1065.55 1491.11 1062.1 C 1498.28 1057.92 1502.52 1052.93 1505.0 1044.99 C 1506.11 1040.73 1506.12 1036.57 1506.06 1032.18 C 1506.06 1031.49 1506.05 1030.81 1506.05 1030.09 C 1506.04 1028.39 1506.02 1026.69 1506.0 1024.99 C 1505.66 1025.51 1505.32 1026.02 1504.97 1026.54 C 1499.77 1033.92 1492.85 1040.23 1483.86 1042.56 C 1470.17 1044.7 1458.24 1043.21 1446.69 1035.18 C 1438.19 1028.24 1433.46 1020.38 1430.0 1010.0 C 1428.95 998.22 1428.63 986.34 1435.0 976.0 C 1435.45 975.27 1435.89 974.54 1436.35 973.78 C 1442.86 964.29 1452.29 956.75 1463.69 954.33 C 1476.13 952.59 1486.79 954.88 1497.0 962.38 Z M 1120.81 961.12 C 1130.91 968.0 1137.2 978.25 1140.0 990.0 C 1141.49 1004.35 1140.46 1017.89 1131.75 1029.88 C 1130.53 1031.28 1129.28 1032.65 1128.0 1034.01 C 1127.34 1034.7 1126.68 1035.41 1126.01 1036.14 C 1117.95 1044.09 1108.56 1047.44 1097.37 1047.57 C 1086.23 1047.36 1076.98 1044.01 1069.0 1036.01 C 1067.35 1033.69 1065.7 1031.38 1064.0 1029.01 C 1063.67 1044.18 1063.34 1059.36 1063.0 1075.01 C 1058.38 1075.01 1053.76 1075.01 1049.0 1075.01 C 1049.0 1036.06 1049.0 997.12 1049.0 957.0 C 1053.62 957.0 1058.24 957.0 1063.0 957.0 C 1063.33 962.27 1063.66 967.55 1064.0 973.0 C 1064.82 971.8 1065.65 970.61 1066.5 969.38 C 1080.05 951.32 1102.26 950.27 1120.81 961.12 Z M 1153.0 927.0 C 1167.0 927.0 1167.0 927.0 1170.43 929.76 C 1171.29 931.04 1172.1 932.35 1172.88 933.69 C 1173.85 935.17 1174.83 936.64 1175.81 938.12 C 1176.32 938.91 1176.83 939.7 1177.35 940.52 C 1180.3 944.95 1183.61 949.11 1186.88 953.31 C 1192.28 960.38 1197.64 967.48 1202.94 974.62 C 1203.83 975.82 1203.83 975.82 1204.75 977.05 C 1205.29 977.79 1205.84 978.53 1206.4 979.29 C 1206.88 979.94 1207.36 980.58 1207.86 981.25 C 1209.0 983.0 1209.0 983.0 1210.0 986.0 C 1214.27 981.95 1217.85 977.54 1221.44 972.88 C 1222.05 972.09 1222.65 971.3 1223.28 970.49 C 1227.02 965.64 1230.69 960.74 1234.32 955.81 C 1235.48 954.23 1236.65 952.65 1237.82 951.08 C 1240.75 947.12 1243.59 943.13 1246.31 939.02 C 1247.13 937.84 1247.13 937.84 1247.97 936.62 C 1249.0 935.13 1249.99 933.62 1250.95 932.08 C 1252.38 930.05 1252.38 930.05 1256.0 927.0 C 1260.29 927.0 1264.58 927.0 1269.0 927.0 C 1269.0 965.94 1269.0 1004.88 1269.0 1045.0 C 1264.05 1045.0 1259.1 1045.0 1254.0 1045.0 C 1253.67 1014.97 1253.34 984.94 1253.0 954.0 C 1246.07 963.4 1246.07 963.4 1239.0 973.0 C 1235.57 977.54 1232.13 982.07 1228.66 986.57 C 1225.77 990.33 1222.9 994.09 1220.2 997.99 C 1219.8 998.56 1219.39 999.14 1218.98 999.73 C 1217.97 1001.18 1216.98 1002.65 1215.99 1004.11 C 1214.0 1006.0 1214.0 1006.0 1211.03 1006.65 C 1208.0 1006.0 1208.0 1006.0 1205.79 1003.68 C 1205.07 1002.57 1204.36 1001.46 1203.62 1000.31 C 1202.76 999.02 1201.9 997.73 1201.03 996.45 C 1200.56 995.74 1200.08 995.03 1199.59 994.29 C 1196.01 989.13 1192.09 984.22 1188.24 979.25 C 1181.88 971.0 1176.03 962.54 1170.0 954.0 C 1169.67 984.03 1169.34 1014.06 1169.0 1045.0 C 1163.72 1045.0 1158.44 1045.0 1153.0 1045.0 C 1153.0 1006.06 1153.0 967.12 1153.0 927.0 Z M 926.0 959.0 C 936.91 965.21 944.69 975.91 948.31 987.81 C 949.24 993.47 949.0 999.27 949.0 1005.0 C 924.91 1005.0 900.82 1005.0 876.0 1005.0 C 879.2 1017.79 881.39 1023.18 891.95 1029.87 C 898.78 1033.63 909.46 1033.25 916.91 1031.2 C 921.45 1028.93 923.26 1026.69 925.5 1022.19 C 926.85 1019.83 926.85 1019.83 929.0 1018.0 C 934.56 1016.83 940.39 1017.49 946.0 1018.0 C 942.71 1028.68 935.97 1036.82 926.38 1042.57 C 915.83 1048.05 902.92 1048.98 891.37 1046.09 C 879.6 1041.4 869.67 1033.08 864.12 1021.56 C 858.84 1008.74 858.26 995.11 863.0 982.0 C 864.72 978.44 866.72 975.22 869.0 972.0 C 869.44 971.36 869.88 970.73 870.34 970.07 C 876.43 962.14 885.52 957.57 895.0 955.0 C 905.47 951.51 916.37 954.45 926.0 959.0 Z M 1352.94 962.31 C 1354.32 963.5 1355.68 964.73 1357.0 966.0 C 1357.64 966.6 1358.27 967.21 1358.93 967.84 C 1369.46 978.86 1370.0 989.97 1370.0 1005.0 C 1345.91 1005.0 1321.82 1005.0 1297.0 1005.0 C 1302.31 1020.8 1302.31 1020.8 1314.5 1030.56 C 1322.2 1033.11 1331.37 1033.61 1339.08 1030.93 C 1343.61 1028.45 1346.03 1026.35 1348.13 1021.62 C 1349.18 1019.57 1349.18 1019.57 1351.0 1018.0 C 1356.41 1017.28 1361.58 1017.54 1367.0 1018.0 C 1365.46 1026.86 1359.84 1034.44 1352.64 1039.73 C 1344.41 1044.9 1336.49 1047.58 1326.75 1047.5 C 1325.93 1047.49 1325.1 1047.48 1324.25 1047.48 C 1312.23 1047.12 1302.47 1042.51 1294.0 1034.0 C 1284.14 1022.41 1281.09 1009.98 1282.0 995.0 C 1283.83 982.42 1288.63 972.66 1298.0 964.0 C 1314.71 951.98 1335.67 949.52 1352.94 962.31 Z M 1021.0 962.0 C 1030.47 968.62 1036.31 978.03 1038.69 989.25 C 1039.12 994.48 1039.0 999.75 1039.0 1005.0 C 1014.91 1005.0 990.82 1005.0 966.0 1005.0 C 970.22 1018.7 972.1 1024.36 984.0 1031.0 C 990.9 1033.3 1001.94 1033.52 1008.69 1030.44 C 1013.57 1027.36 1016.85 1022.73 1020.0 1018.0 C 1022.79 1017.78 1025.35 1017.72 1028.12 1017.81 C 1029.26 1017.83 1029.26 1017.83 1030.41 1017.85 C 1032.27 1017.89 1034.14 1017.94 1036.0 1018.0 C 1033.4 1028.49 1027.7 1035.67 1018.63 1041.49 C 1007.24 1048.02 994.18 1049.16 981.39 1046.15 C 968.79 1041.34 959.82 1032.3 954.19 1020.25 C 949.23 1009.01 948.88 994.32 953.06 982.75 C 959.53 968.69 970.19 960.28 984.31 954.69 C 998.14 952.11 1009.07 955.02 1021.0 962.0 Z M 1604.46 962.95 C 1613.63 970.33 1618.98 980.51 1621.0 992.0 C 1621.0 996.29 1621.0 1000.58 1621.0 1005.0 C 1596.91 1005.0 1572.82 1005.0 1548.0 1005.0 C 1552.68 1020.54 1552.68 1020.54 1564.17 1030.09 C 1570.99 1033.47 1581.37 1033.16 1588.73 1031.31 C 1594.76 1028.51 1598.07 1023.87 1601.0 1018.0 C 1606.61 1018.0 1612.22 1018.0 1618.0 1018.0 C 1615.45 1028.2 1608.91 1036.38 1599.96 1041.86 C 1588.89 1047.62 1575.7 1049.15 1563.48 1046.13 C 1550.87 1041.18 1541.94 1032.57 1536.08 1020.52 C 1531.27 1009.24 1530.52 993.59 1535.13 982.06 C 1537.58 977.31 1540.48 973.02 1544.0 969.0 C 1544.5 968.39 1545.0 967.79 1545.52 967.16 C 1561.16 949.74 1586.21 950.63 1604.46 962.95 Z M 751.0 927.0 C 810.98 927.0 810.98 927.0 822.25 932.25 C 822.93 932.56 823.61 932.87 824.32 933.19 C 829.39 935.56 833.85 938.21 838.0 942.0 C 838.6 942.52 839.2 943.04 839.82 943.58 C 850.58 953.53 855.54 967.02 856.26 981.41 C 856.82 998.75 853.18 1015.12 840.96 1028.16 C 816.2 1051.38 783.29 1045.0 751.0 1045.0 C 751.0 1006.06 751.0 967.12 751.0 927.0 Z M 766.0 941.0 C 766.0 970.7 766.0 1000.4 766.0 1031.0 C 801.07 1032.99 801.07 1032.99 830.15 1018.24 C 839.65 1006.75 842.05 992.76 840.76 978.28 C 839.08 966.37 833.44 956.45 824.0 949.0 C 806.58 937.58 786.02 941.0 766.0 941.0 Z M 1630.0 957.0 C 1634.95 957.0 1639.9 957.0 1645.0 957.0 C 1645.33 961.95 1645.66 966.9 1646.0 972.0 C 1646.8 970.8 1647.61 969.61 1648.44 968.38 C 1652.45 963.0 1657.62 959.13 1664.0 957.0 C 1666.74 956.93 1669.45 956.91 1672.19 956.94 C 1672.94 956.94 1673.69 956.95 1674.46 956.95 C 1676.31 956.96 1678.15 956.98 1680.0 957.0 C 1680.0 961.29 1680.0 965.58 1680.0 970.0 C 1679.02 970.01 1678.04 970.03 1677.04 970.04 C 1667.99 970.37 1660.85 971.08 1654.23 977.79 C 1650.43 982.43 1648.57 987.27 1647.0 993.0 C 1646.67 993.99 1646.34 994.98 1646.0 996.0 C 1645.89 997.61 1645.82 999.22 1645.79 1000.84 C 1645.77 1001.82 1645.75 1002.8 1645.73 1003.81 C 1645.71 1005.4 1645.71 1005.4 1645.68 1007.01 C 1645.66 1008.1 1645.64 1009.18 1645.62 1010.29 C 1645.56 1013.76 1645.5 1017.22 1645.44 1020.69 C 1645.39 1023.03 1645.35 1025.38 1645.31 1027.73 C 1645.2 1033.49 1645.1 1039.24 1645.0 1045.0 C 1640.05 1045.0 1635.1 1045.0 1630.0 1045.0 C 1630.0 1015.96 1630.0 986.92 1630.0 957.0 Z M 1380.0 957.0 C 1384.62 957.0 1389.24 957.0 1394.0 957.0 C 1394.33 962.61 1394.66 968.22 1395.0 974.0 C 1395.68 972.8 1396.36 971.61 1397.06 970.38 C 1401.18 963.82 1406.48 959.25 1414.0 957.0 C 1416.83 956.67 1419.59 956.71 1422.44 956.81 C 1423.17 956.83 1423.9 956.84 1424.65 956.85 C 1426.44 956.89 1428.22 956.94 1430.0 957.0 C 1430.0 961.29 1430.0 965.58 1430.0 970.0 C 1429.01 970.03 1428.02 970.05 1427.0 970.08 C 1417.26 970.44 1410.31 971.36 1403.25 978.5 C 1396.63 986.84 1395.4 996.78 1395.39 1007.11 C 1395.37 1008.2 1395.36 1009.3 1395.34 1010.42 C 1395.29 1013.86 1395.27 1017.31 1395.25 1020.75 C 1395.22 1023.1 1395.19 1025.46 1395.16 1027.81 C 1395.09 1033.54 1395.04 1039.27 1395.0 1045.0 C 1390.05 1045.0 1385.1 1045.0 1380.0 1045.0 C 1380.0 1015.96 1380.0 986.92 1380.0 957.0 Z M 1109.31 971.52 C 1113.92 974.06 1117.28 976.93 1120.19 981.32 C 1120.92 982.39 1120.92 982.39 1121.67 983.49 C 1126.18 991.99 1126.38 1002.7 1124.35 1011.98 C 1121.38 1020.22 1115.65 1026.77 1108.0 1031.0 C 1100.46 1034.0 1090.56 1034.45 1082.69 1032.07 C 1075.44 1028.71 1068.76 1022.34 1065.67 1014.96 C 1065.45 1014.32 1065.23 1013.67 1065.0 1013.0 C 1064.78 1012.37 1064.56 1011.73 1064.33 1011.08 C 1061.55 1001.7 1062.42 992.65 1067.0 984.0 C 1077.73 968.95 1092.21 963.98 1109.31 971.52 Z M 1492.96 973.06 C 1499.34 977.08 1503.71 983.88 1506.0 991.0 C 1507.05 1001.76 1506.07 1011.1 1499.25 1019.81 C 1493.72 1025.72 1486.75 1029.52 1478.66 1030.33 C 1467.72 1030.46 1460.83 1028.41 1452.78 1020.92 C 1446.22 1013.86 1443.55 1006.39 1443.74 996.81 C 1444.52 988.13 1448.34 981.34 1454.62 975.37 C 1466.52 965.47 1479.81 965.95 1492.96 973.06 Z M 922.0 973.0 C 927.18 976.5 930.45 980.29 933.0 986.0 C 933.0 987.98 933.0 989.96 933.0 992.0 C 914.19 992.0 895.38 992.0 876.0 992.0 C 877.33 984.03 880.51 978.67 886.88 973.62 C 898.27 965.89 910.16 965.9 922.0 973.0 Z M 1346.31 974.69 C 1350.43 977.99 1353.2 982.04 1355.0 987.0 C 1355.0 988.65 1355.0 990.3 1355.0 992.0 C 1336.19 992.0 1317.38 992.0 1298.0 992.0 C 1299.44 983.35 1303.06 978.02 1309.84 972.48 C 1321.5 964.5 1335.2 967.22 1346.31 974.69 Z M 1011.0 972.0 C 1016.89 976.19 1021.87 980.92 1024.0 988.0 C 1024.0 989.32 1024.0 990.64 1024.0 992.0 C 1004.86 992.0 985.72 992.0 966.0 992.0 C 969.64 981.08 972.98 975.46 982.88 969.96 C 992.02 965.9 1002.49 967.04 1011.0 972.0 Z M 1593.0 972.0 C 1599.5 976.31 1603.34 981.68 1606.0 989.0 C 1606.0 989.99 1606.0 990.98 1606.0 992.0 C 1586.86 992.0 1567.72 992.0 1548.0 992.0 C 1551.58 981.26 1554.85 975.1 1565.0 970.0 C 1573.96 965.73 1584.59 967.22 1593.0 972.0 Z" fill="#FFFFFF" fill-rule="evenodd"/>
</svg>

